<?xml version="1.0" standalone="no"?>
<!DOCTYPE svg PUBLIC "-//W3C//DTD SVG 20010904//EN"
 "http://www.w3.org/TR/2001/REC-SVG-20010904/DTD/svg10.dtd">
<svg version="1.0" xmlns="http://www.w3.org/2000/svg"
 width="125.000000pt" height="44.000000pt" viewBox="0 0 125.000000 44.000000"
 preserveAspectRatio="xMidYMid meet">
<metadata>
Created by potrace 1.10, written by Peter Selinger 2001-2011
</metadata>
<g transform="translate(0.000000,44.000000) scale(0.100000,-0.100000)"
fill="#000000" stroke="none">
<path d="M269 415 c-30 -16 -41 -38 -32 -62 5 -14 8 -13 14 6 5 13 20 24 39
27 21 5 30 12 30 25 0 22 -15 24 -51 4z"/>
<path d="M164 405 c-19 -14 -19 -14 2 -15 24 0 39 -15 47 -45 3 -15 5 -13 6 8
1 30 -14 67 -27 67 -5 0 -17 -7 -28 -15z"/>
<path d="M259 348 c-10 -18 -8 -24 7 -35 10 -7 23 -13 30 -13 15 0 74 48 74
61 0 5 -22 9 -50 9 -40 0 -51 -4 -61 -22z m66 -8 c-3 -5 -15 -10 -26 -10 -10
0 -19 5 -19 10 0 6 12 10 26 10 14 0 23 -4 19 -10z"/>
<path d="M715 340 c-4 -7 -3 -16 3 -22 14 -14 45 -2 40 15 -6 16 -34 21 -43 7z"/>
<path d="M530 245 c0 -88 1 -95 20 -95 17 0 20 7 20 40 0 39 1 40 35 40 34 0
35 -1 35 -40 0 -33 3 -40 20 -40 19 0 20 7 20 95 0 88 -1 95 -20 95 -17 0 -20
-7 -20 -40 0 -39 -1 -40 -35 -40 -34 0 -35 1 -35 40 0 33 -3 40 -20 40 -19 0
-20 -7 -20 -95z"/>
<path d="M790 245 l0 -95 55 0 c42 0 55 3 55 15 0 10 -11 15 -35 15 -31 0 -35
3 -35 25 0 21 5 25 30 25 20 0 30 5 30 15 0 10 -10 15 -30 15 -25 0 -30 4 -30
25 0 22 4 25 35 25 24 0 35 5 35 15 0 12 -13 15 -55 15 l-55 0 0 -95z"/>
<path d="M940 245 l0 -95 45 0 c59 0 92 16 105 53 17 49 12 77 -19 108 -25 24
-37 29 -80 29 l-51 0 0 -95z m102 48 c38 -35 12 -113 -39 -113 -22 0 -23 3
-23 65 0 60 2 65 22 65 12 0 30 -7 40 -17z"/>
<path d="M121 302 c-122 -65 -74 -252 65 -254 76 -2 136 58 136 135 0 106
-107 169 -201 119z m114 -6 c78 -33 98 -138 38 -198 -76 -76 -206 -26 -206 80
0 51 25 96 65 115 41 20 59 21 103 3z"/>
<path d="M160 270 c0 -5 5 -10 10 -10 6 0 10 5 10 10 0 6 -4 10 -10 10 -5 0
-10 -4 -10 -10z"/>
<path d="M240 267 c0 -3 12 -19 26 -34 19 -20 24 -22 16 -7 -11 21 -42 51 -42
41z"/>
<path d="M122 238 c6 -18 28 -21 28 -4 0 9 -7 16 -16 16 -9 0 -14 -5 -12 -12z"/>
<path d="M101 182 c-16 -30 4 -67 46 -87 28 -13 40 -14 69 -5 35 12 78 64 71
85 -2 6 -28 11 -58 12 -30 1 -68 5 -86 8 -25 6 -33 3 -42 -13z m59 -11 c0 -9
30 -21 62 -25 25 -4 35 -16 14 -16 -9 0 -14 -4 -11 -10 3 -5 2 -10 -4 -10 -5
0 -17 -3 -27 -7 -12 -4 -15 -3 -10 6 5 8 0 10 -18 7 -15 -3 -24 -1 -21 4 3 4
-2 10 -10 14 -8 3 -15 10 -15 16 0 6 4 9 9 5 5 -3 12 -1 15 4 4 5 -2 12 -11
14 -14 4 -13 5 5 6 12 0 22 -3 22 -8z m98 -8 c-10 -2 -28 -2 -40 0 -13 2 -5 4
17 4 22 1 32 -1 23 -4z"/>
<path d="M720 220 c0 -60 3 -70 18 -70 15 0 17 9 14 70 -3 52 -7 70 -18 70
-11 0 -14 -16 -14 -70z"/>
</g>
</svg>
